<svg xmlns="http://www.w3.org/2000/svg" viewBox="0 0 48 48">
      <polygon
        fill="#fff"
        points="43,43 41.375,42.25 39.625,42 36.763,42 34,41 32.5,41 32.06,39.69 31.961,39 32.25,39 33.754,38.199 36,37 36.595,36.066 37.547,35 38,34 38,32.625 39,31.625 40.506,28.799 40.676,28.361 40.897,27.25 41,26 41,23.75 40.56,22.832 40,22.125 41,20 41,18.25 40.61,16.955 40.396,16.454 39.749,15.011 39.576,13.97 39.375,12.875 38.843,11.515 37.75,9.58 36.933,8.77 34.087,6.451 32,5.327 28.329,4.396 24.625,4 21.499,4.202 19.052,5.023 15.374,6.75 14.949,6.845 14.221,7.373 13.75,8.375 13.171,9 13,9.25 13,9.572 12.5,11.019 12.112,11.977 12,12.25 12,12.875 11,15 11,20.875 12,22.5 12,23.125 12.56,25.209 13.024,26.488 13.849,28.352 14,29.75 14,34 13.581,37.206 13.538,37.439 11.391,40.627 10.97,40.924 10.125,41.701 9.765,41.822 8.686,42.049 7,43 4,43 4,44 44,44 44,43"
      ></polygon>
      <polygon
        fill="#37474f"
        points="27.414,45 24.675,45 23.3,44 21,44 21,42 23.95,42 25.325,43 26.586,43 27.586,42 30,42 30,44 28.414,44"
      ></polygon>
      <polygon
        fill="#37474f"
        points="44,44 42.78,44 41.089,43.22 39.554,43 36.587,43 33.824,42 31.781,42 31.069,39.825 31.01,39.392 32.99,39.12 33.037,39.46 33.219,40 34.176,40 36.938,41 39.767,41.01 41.794,41.342 43.22,42 44,42"
      ></polygon>
      <polygon
        fill="#37474f"
        points="7.263,44 4,44 4,42 6.737,42 8.479,41.07 9.605,40.82 10.665,39.916 12.598,37.024 13,33.936 13,29.804 12.871,28.613 12.109,26.892 11.62,25.55 11,23.125 11,22.783 10,21.158 10,14.776 11,12.651 11,12.054 11.573,10.644 12,9.404 12,8.94 12.438,8.32 12.911,7.81 13.425,6.715 14.529,5.914 15.049,5.798 18.734,4.074 21.435,3.204 24.646,2.996 28.575,3.426 32.475,4.446 34.719,5.676 37.564,7.994 38.62,9.088 39.775,11.151 40.358,12.694 40.714,14.72 41.568,16.667 42,18.25 42,20.224 41.169,21.99 41.461,22.399 42,23.522 42,26 41.878,27.445 41.608,28.722 41.389,29.27 39.707,32.332 39,33.039 39,34.216 38.293,35.666 37.395,36.671 36.703,37.759 32.5,40 28.935,39.981 27.901,39.781 26.283,38.843 20.706,33.709 18.64,31.61 17.929,30.262 17.486,28.524 17,27.173 17,25 19,25 18.999,26.827 19.396,27.941 19.834,29.642 20.318,30.515 22.087,32.263 27.552,37.292 28.599,37.879 29.222,38 32,38 35.297,36.241 35.849,35.399 36.699,34.448 37,33.784 37,32.211 38.188,31.023 39.712,28.08 39.905,27.11 40.003,25.918 40,23.979 39.706,23.365 38.831,22.26 40,19.776 40,18.397 39.669,17.297 38.763,15.175 38.409,13.149 37.938,11.944 36.947,10.192 36.229,9.479 33.529,7.287 31.635,6.266 28.152,5.382 24.604,5.004 21.693,5.191 19.425,5.952 15.369,7.775 15.017,8.031 14.483,9.055 14,9.576 14,9.739 13.445,11.346 13,12.446 13,13.099 12,15.224 12,20.592 13,22.217 13,22.993 13.526,24.949 13.965,26.146 14.843,28.244 15,29.75 14.991,34.13 14.483,37.824 12.118,41.338 11.6,41.704 10.645,42.582 9.971,42.8 9.043,42.995"
      ></polygon>
      <path
        fill="#37474f"
        d="M24.625,19l-1.875,0.375L22,21.625L24,23h5v-2.375L24.625,19z M23.187,21.227l0.328-0.986	l1.028-0.205L25,20.206V22h-0.69L23.187,21.227z"
      ></path>
      <path
        fill="#37474f"
        d="M22.104,14L19,14v-2l2.894,0L26,11.125h3.209l2,0.875H36v2h-5.209l-2-0.875h-2.683L22.104,14z"
      ></path>
      <path
        fill="#37474f"
        d="M40.375,20.875L38.5,20L35,21v2l2,0.125L40,24l0.375-1V20.875z M37.173,22.134l-0.111-0.007	L36,22.061v-0.306l2-0.572v1.192l-0.72-0.21L37.173,22.134z"
      ></path>
      <polygon
        fill="#37474f"
        points="35,35 29.818,35 28.142,34.371 27.323,34.944 26.177,33.306 27.858,32.129 30.182,33 35,33"
      ></polygon>
      <path
        fill="#37474f"
        d="M34.721,31H32v-2h1.279l0.318-0.956c-0.018-0.018-0.036-0.036-0.055-0.055	C32.108,26.556,32,25.017,32,23h1.998c0,1.964,0.139,2.756,0.958,3.575c0.229,0.229,0.438,0.411,0.447,0.419l0.505,0.438L34.721,31z"
      ></path>
      <polygon
        fill="#37474f"
        points="21.641,17.964 21.109,16.036 25,15 29,15 29,17 25.136,17"
      ></polygon>
      <polygon
        fill="#37474f"
        points="40.121,18.051 37.554,17 35.563,17 34.194,17.947 33.056,16.303 34.938,15 37.946,15 40.879,16.199"
      ></polygon>
      <polygon
        fill="#37474f"
        points="30,31 28.25,31 27,29.332 27,27.589 28.543,26.043 29.957,27.457 29,28.414 29,28.667 29.25,29 30,29"
      ></polygon>
    </svg>